<?xml version="1.0" encoding="UTF-8"?>
<svg id="Layer_1" xmlns="http://www.w3.org/2000/svg" version="1.1" viewBox="0 0 360 360">
  <!-- Generator: Adobe Illustrator 29.8.2, SVG Export Plug-In . SVG Version: 2.1.1 Build 3)  -->
  <defs>
    <style>
      .st0 {
        fill: #231f20;
      }

      .st1 {
        fill: #451614;
      }
    </style>
  </defs>
  <polygon class="st0" points="348.33 222.17 348.36 222.74 348.65 222.17 348.33 222.17"/>
  <g>
    <g>
      <path class="st1" d="M61.48,231.36V73.65H3.7v213.01s0,0,0,0h0c68.66,0,137.16,0,205.8,0-5.91-18.49-11.8-36.9-17.64-55.2l-130.39-.1ZM6.96,76.83h51.28v153.07H6.96V76.83Z"/>
      <path class="st1" d="M210.2,287.16H3.27s-.06-.5-.06-.5V73.15h58.78v157.72l130.26.1,17.96,56.2ZM4.2,286.16h204.63l-17.32-54.2-130.53-.1V74.15H4.2v212.01ZM58.73,230.4H6.46V76.33h52.27v154.07ZM7.46,229.4h50.27V77.33H7.46v152.07Z"/>
    </g>
    <g>
      <path class="st1" d="M282.69,285.4c-1.81-5-3.66-9.98-5.43-14.99-4.56-12.88-9.55-24.92-14.03-37.83-.31-.74-.52-1.28-.75-1.82-9.78-22.77-19.55-45.54-29.33-68.31-12.45-28.98-24.91-57.96-37.33-86.96-.42-.98-.92-1.27-1.95-1.27-17.13.03-34.26.03-51.4,0-.95,0-1.38.29-1.77,1.16-10.08,22.92-20.2,45.82-30.31,68.72-11.3,25.61-22.62,51.22-33.89,76.84-.41.94-.44,2.05-.67,3.23h130.5c.38,0,.81-.11,1.13.03.44.17,1,.45,1.15.83.84,2.03,1.64,4.08,2.31,6.17,5.44,17.75,11.71,36.41,17.12,54.17.31,1.01.7,1.37,1.78,1.37,17.32-.04,34.64-.03,51.96-.03h1.34c-.17-.53-.29-.93-.43-1.32ZM256.66,229.28c-13.82,0-27.65-.01-41.47.03-1.13,0-1.63-.34-1.97-1.41-.64-2.01-1.51-3.95-2.18-5.95-.28-.83-129.66-1.09-130.52-1.08l1.51.02h-1.86c.22-.55.38-.96.55-1.35,13.8-31.26,27.59-62.52,41.39-93.78,6.92-15.67,13.84-31.34,20.72-47.02.4-.91.84-1.23,1.86-1.23,15.69.04,31.38.04,47.07,0,1.02,0,1.45.33,1.84,1.24,18.18,42.4,36.39,84.79,54.6,127.18,3.15,7.34,6.31,14.69,9.46,22.03.16.38.3.76.53,1.32-.62,0-1.08,0-1.53,0Z"/>
      <path class="st1" d="M229.82,287.25c-1.26,0-1.87-.47-2.25-1.72-2.78-9.13-5.84-18.65-8.8-27.85-2.79-8.7-5.68-17.69-8.33-26.31-.57-1.79-1.28-3.68-2.29-6.13-.02-.04-.14-.26-.88-.56-.12-.05-.33-.03-.55-.01-.13.01-.27.02-.4.02H75.22l.12-.6c.08-.38.13-.75.18-1.11.11-.79.22-1.53.53-2.23,9.45-21.48,18.93-42.94,28.4-64.41l9.04-20.47c8.93-20.22,17.85-40.45,26.76-60.68.46-1.05,1.08-1.45,2.23-1.46,17.22.03,34.52.03,51.39,0,1.31,0,1.92.42,2.41,1.57,9.88,23.05,19.78,46.1,29.68,69.14l36.99,86.12c.15.35.3.71.47,1.11l.29.71c2.36,6.8,4.9,13.46,7.36,19.89,2.22,5.82,4.52,11.84,6.68,17.96,1.19,3.38,2.42,6.74,3.65,10.1.59,1.63,1.19,3.26,1.78,4.89h0c.09.26.18.52.28.83l.38,1.16h-11.24c-14.25,0-28.49,0-42.74.03h0ZM207.05,223.65c.2,0,.4.02.6.1.8.32,1.25.67,1.43,1.1,1.02,2.47,1.74,4.39,2.33,6.21,2.64,8.63,5.53,17.61,8.32,26.31,2.96,9.21,6.02,18.73,8.8,27.87.25.83.48,1.01,1.29,1.01h0c14.25-.03,28.49-.03,42.74-.03h9.87c-.07-.23-.14-.44-.22-.65-.59-1.63-1.18-3.26-1.78-4.89-1.23-3.37-2.46-6.73-3.65-10.11-2.16-6.11-4.45-12.12-6.67-17.94-2.46-6.44-5-13.1-7.36-19.89l-.28-.68c-.17-.4-.31-.75-.46-1.1l-36.99-86.12c-9.9-23.04-19.8-46.09-29.68-69.14-.33-.77-.62-.96-1.48-.96h-.01c-16.88.03-34.17.03-51.4,0h0c-.74,0-1,.17-1.3.86-8.9,20.23-17.83,40.46-26.76,60.68l-9.04,20.47c-9.48,21.47-18.95,42.93-28.4,64.41-.25.57-.35,1.25-.45,1.97-.03.19-.05.38-.08.57h129.91c.1,0,.21,0,.32-.02.13-.01.26-.02.4-.02ZM215.18,229.81c-1.34,0-2.03-.49-2.43-1.76-.34-1.06-.75-2.13-1.15-3.16-.32-.84-.65-1.67-.94-2.52-5.95-.7-114.5-.98-128.64-1v.02h-2.61l.49-1.21c.12-.31.23-.58.35-.84l44.48-100.78c5.89-13.33,11.77-26.67,17.63-40.01.49-1.11,1.11-1.52,2.3-1.52h.01c15.62.04,31.45.04,47.07,0,1.18,0,1.82.42,2.3,1.54,16.08,37.51,32.19,75,48.3,112.5l15.77,36.71c.1.24.2.49.31.78l.5,1.25h-11c-10.91,0-21.83,0-32.74.03h-.01ZM80.91,220.36c3.85,0,34.84.07,65.09.23,65.23.33,65.34.66,65.52,1.2.31.92.66,1.83,1.01,2.74.4,1.05.82,2.13,1.17,3.22.27.85.56,1.06,1.47,1.06h.02c10.91-.03,21.83-.03,32.74-.03h9.37s.16,0,.16,0c-.09-.23-.17-.43-.25-.63l-15.77-36.71c-16.11-37.5-32.21-74.99-48.3-112.5-.32-.75-.59-.94-1.37-.94h-.01c-15.62.04-31.45.04-47.07,0h-.01c-.79,0-1.06.18-1.39.93-5.86,13.35-11.75,26.68-17.63,40.02l-44.48,100.78c-.09.2-.17.41-.26.63Z"/>
    </g>
    <g>
      <path class="st1" d="M356.3,229.98c-.05-3.9.04-7.8-.21-11.69-.49-7.57-2.55-14.74-6.21-21.4-5.95-10.84-15-18.19-26.21-23.07-.75-.33-1.5-.65-2.42-1.04.55-.35.9-.57,1.26-.79,9.37-5.62,16.37-13.34,20.55-23.48,3.47-8.39,4.44-17.15,3.68-26.15-.7-8.3-3.23-15.98-7.95-22.87-5.91-8.63-14.06-14.45-23.55-18.52-12.77-5.46-26.26-7.49-40.02-7.61-22.22-.2-44.44-.07-66.66-.07-.46,0-.92,0-1.51,0,.21.54.36.97.55,1.38,6.09,13.35,12.2,26.69,18.26,40.06.39.86.87,1.14,1.81,1.14,12.51-.03,25.02-.06,37.53,0,4.5.02,8.96.52,13.26,1.96,5.23,1.75,9.48,4.68,11.7,9.96,1.35,3.23,1.61,6.62,1.34,10.09-.46,5.92-3.01,10.62-8.15,13.73-5,3.03-10.58,4-16.3,4.12-7.63.15-15.26.07-22.9.08-.49,0-.98,0-1.59,0,.09.38.11.59.18.77,5.63,13.09,11.26,26.18,16.87,39.28.3.71.73.78,1.37.78,3.69-.02,7.38,0,11.07,0,4.33,0,8.62.32,12.85,1.33,9.33,2.22,14.38,7.39,15.91,16.26.64,3.71-.21,6.83-3.37,9.06-2.14,1.51-4.27,3.08-6.58,4.29-4,2.11-10.38,2.28-14.72,4.37.09.28.16.52.25.75,7.48,17.71,14.97,35.42,22.44,53.14.29.69.66.93,1.41.92,5.26-.03,10.51-.01,15.77-.03.41,0,.86-.04,1.24-.19,13.1-5.2,23.76-13.38,31.09-25.59,4.91-8.19,7.34-17.12,7.81-26.62.05-1.04.02-2.09,0-3.2.06-.42.11-.78.11-1.14ZM353.06,227.95c0,.12-.07.23-.14.46l-58.63,1.48c-.03-.08-.06-.16-.09-.24.28-.21.55-.41.83-.62,1.71-1.25,3.46-2.43,5.12-3.75,3.79-3.01,4.63-7,3.95-11.62-1.62-10.92-8.55-16.51-18.69-18.99-4.39-1.07-8.86-1.34-13.36-1.36-2.97-.01-5.94.03-8.9-.04-.45-.01-1.14-.41-1.31-.81-4.7-10.82-9.34-21.66-14-32.5-.1-.22-.14-.47-.26-.87.58,0,1.03,0,1.48,0,6.06-.02,12.13.03,18.19-.1,5.59-.12,11.05-1.07,16.1-3.61,7.11-3.57,10.86-9.41,11.47-17.33.46-5.95-.61-11.48-4.43-16.24-3.41-4.25-8.03-6.65-13.23-7.74-3.91-.83-7.94-1.41-11.93-1.47-11.74-.19-23.49-.08-35.24-.05-1.01,0-1.56-.23-2.01-1.22-5.07-11.21-10.2-22.4-15.31-33.59-.15-.34-.27-.69-.45-1.18.59,0,1.05,0,1.5,0,20.48,0,40.96-.16,61.44.08,13.92.16,27.58,2.19,40.41,8.07,9.55,4.38,17.45,10.67,22.63,20.01,3.3,5.95,4.98,12.39,5.4,19.14.52,8.31-.53,16.4-3.88,24.09-4.08,9.38-10.71,16.46-19.53,21.55-2.19,1.26-4.4,2.47-6.7,3.76,4.18,1.76,8.3,3.23,12.18,5.17,13.6,6.83,22.47,17.53,25.99,32.47,1.32,5.61,1.58,11.31,1.4,17.04Z"/>
      <path class="st1" d="M300.25,287.24c-.95,0-1.48-.36-1.85-1.23-5.73-13.59-11.47-27.18-17.21-40.76l-5.23-12.38c-.07-.17-.12-.34-.18-.53l-.22-.68.4-.19c2.18-1.05,4.86-1.62,7.44-2.18,2.71-.58,5.28-1.14,7.26-2.18,2-1.05,3.91-2.4,5.75-3.71l.78-.55c2.78-1.96,3.82-4.77,3.16-8.57-1.49-8.65-6.43-13.69-15.53-15.85-3.77-.9-7.81-1.31-12.7-1.31h-3.39c-2.58,0-5.14,0-7.72,0h-.04c-.68,0-1.37-.1-1.79-1.08-4.19-9.8-8.4-19.6-12.61-29.39l-4.25-9.89c-.07-.17-.1-.32-.14-.52-.02-.09-.04-.2-.07-.33l-.14-.61h2.21c2.29,0,4.59,0,6.88,0,5.25,0,10.67.02,16.01-.09,6.61-.13,11.71-1.42,16.05-4.05,4.78-2.9,7.45-7.38,7.91-13.34.3-3.88-.11-7.01-1.31-9.85-1.93-4.6-5.65-7.76-11.39-9.68-3.82-1.28-8.11-1.91-13.1-1.93-12.91-.05-26.14-.03-37.53,0h-.01c-1.15,0-1.79-.4-2.25-1.43-4.63-10.2-9.28-20.38-13.93-30.57l-4.33-9.49c-.13-.28-.24-.57-.37-.9l-.46-1.19h2.24c6.6,0,13.18,0,19.77-.02,15.37-.03,31.27-.05,46.9.09,15.34.14,28.5,2.64,40.21,7.65,10.44,4.46,18.21,10.58,23.77,18.69,4.6,6.72,7.31,14.5,8.03,23.12.82,9.71-.4,18.34-3.72,26.38-4.1,9.93-11.09,17.91-20.76,23.72-.14.09-.29.18-.44.27l1.55.67c12.08,5.26,20.73,12.88,26.44,23.29,3.67,6.69,5.78,13.96,6.27,21.61.18,2.8.18,5.64.19,8.39,0,1.11,0,2.21.02,3.32h0c0,.37-.04.74-.1,1.13v.87c.01.82.02,1.59-.02,2.37-.49,9.92-3.14,18.95-7.88,26.85-7.08,11.8-17.33,20.24-31.33,25.8-.38.15-.83.22-1.42.22-5.25.01-10.51,0-15.76.03h-.02ZM276.78,232.19c.03.1.06.19.1.29l5.23,12.38c5.74,13.59,11.48,27.17,17.21,40.77.21.5.38.61.95.62,5.26-.03,10.51-.01,15.77-.03.45,0,.8-.05,1.05-.15,13.79-5.48,23.88-13.78,30.84-25.38,4.66-7.76,7.26-16.63,7.74-26.39.04-.75.03-1.51.02-2.31v-.89s0-.12,0-.12c.05-.36.09-.68.09-.98h0c-.01-1.11-.02-2.22-.02-3.33,0-2.74-.01-5.57-.19-8.33-.48-7.51-2.55-14.64-6.15-21.19-5.6-10.21-14.09-17.68-25.97-22.85l-3.29-1.42,1.33-.83c.28-.18.51-.32.74-.46,9.49-5.69,16.33-13.52,20.35-23.24,3.26-7.9,4.46-16.37,3.65-25.92-.71-8.44-3.36-16.06-7.86-22.63-5.45-7.95-13.08-13.95-23.33-18.34-11.59-4.96-24.62-7.44-39.82-7.57-15.62-.14-31.52-.12-46.89-.09-6.59.01-13.18.02-19.77.02h-.78c.09.24.18.46.28.68l4.33,9.49c4.65,10.19,9.3,20.37,13.93,30.57.3.66.59.84,1.34.84h.01c11.39-.03,24.62-.06,37.53,0,5.1.02,9.49.67,13.42,1.98,6.03,2.02,9.95,5.37,12,10.24,1.24,2.96,1.69,6.33,1.38,10.32-.49,6.29-3.31,11.04-8.39,14.11-4.5,2.72-9.76,4.06-16.55,4.19-5.34.11-10.77.09-16.03.09-2.29,0-4.59-.01-6.88,0h-.97s.02.05.02.07l4.25,9.89c4.21,9.79,8.42,19.59,12.61,29.39.18.43.32.48.91.48,2.57-.01,5.15,0,7.72,0h3.35s.03,0,.04,0c4.97,0,9.08.43,12.93,1.34,9.54,2.27,14.72,7.56,16.29,16.66.73,4.22-.44,7.34-3.57,9.55l-.77.55c-1.87,1.33-3.8,2.7-5.86,3.78-2.1,1.11-4.85,1.7-7.51,2.27-2.37.51-4.82,1.04-6.83,1.92ZM293.94,230.4l-.34-.93,1.13-.84c.54-.39,1.08-.78,1.63-1.17,1.16-.82,2.35-1.67,3.47-2.56,3.31-2.62,4.5-6.17,3.76-11.15-1.46-9.84-7.45-15.92-18.31-18.58-4.74-1.16-9.57-1.33-13.24-1.35-1,0-2,0-3.01,0-1.93,0-3.94,0-5.91-.04-.61-.01-1.49-.49-1.75-1.11-4.36-10.05-8.75-20.28-13-30.18l-1-2.33c-.07-.17-.12-.34-.18-.57l-.29-1h2.15c1.83,0,3.67,0,5.5,0,4.15,0,8.46,0,12.68-.09,6.2-.13,11.39-1.3,15.88-3.55,6.83-3.43,10.59-9.13,11.2-16.92.5-6.45-.92-11.64-4.32-15.88-3.1-3.86-7.45-6.41-12.94-7.57-4.38-.93-8.25-1.4-11.83-1.46-9.31-.15-18.78-.11-27.94-.07-2.43.01-4.86.02-7.29.03h-.02c-1.06,0-1.88-.26-2.45-1.52-3.8-8.39-7.63-16.77-11.46-25.15l-3.86-8.44c-.11-.23-.19-.48-.3-.76l-.42-1.13h2.23c6.11,0,12.22-.01,18.34-.02,14.13-.03,28.74-.06,43.11.1,15.81.18,29.09,2.84,40.61,8.11,10.5,4.82,17.98,11.43,22.86,20.22,3.18,5.73,5.02,12.24,5.46,19.35.56,9.01-.72,16.96-3.92,24.32-4,9.2-10.64,16.53-19.74,21.79-1.49.86-3,1.7-4.53,2.55l-1.27.71c1,.41,2,.81,3,1.21,2.88,1.15,5.6,2.24,8.27,3.58,13.94,7,22.77,18.03,26.25,32.8,1.18,5,1.63,10.46,1.41,17.17h0c0,.15-.05.28-.1.41-.02.05-.04.11-.07.19l-.11.34-59.35,1.5ZM270.71,192.81c.45,0,.89,0,1.34,0,3.73.02,8.63.19,13.48,1.38,11.3,2.77,17.54,9.12,19.06,19.4.8,5.37-.52,9.21-4.13,12.08-1.14.91-2.35,1.77-3.52,2.6-.51.36-1.01.72-1.52,1.09l57.13-1.44h0c.21-6.62-.23-11.99-1.38-16.9-3.41-14.47-12.07-25.28-25.73-32.13-2.63-1.32-5.33-2.4-8.19-3.55-1.31-.52-2.63-1.05-3.96-1.61l-.94-.4,3.07-1.71c1.53-.85,3.03-1.69,4.52-2.54,8.91-5.15,15.41-12.32,19.32-21.32,3.13-7.21,4.39-15.02,3.84-23.86-.43-6.96-2.23-13.33-5.34-18.93-4.77-8.6-12.1-15.08-22.4-19.8-11.38-5.22-24.54-7.84-40.2-8.02-14.36-.17-28.97-.13-43.1-.1-6.11.01-12.22.03-18.34.02h-.79c.06.17.12.32.19.47l3.86,8.44c3.83,8.38,7.66,16.76,11.46,25.15.33.74.65.93,1.54.93h.02c2.43,0,4.85-.02,7.28-.03,9.17-.04,18.64-.08,27.96.07,3.65.06,7.58.54,12.03,1.48,5.72,1.21,10.27,3.88,13.51,7.92,3.57,4.45,5.05,9.87,4.53,16.59-.63,8.17-4.58,14.14-11.74,17.74-4.63,2.33-9.96,3.52-16.31,3.66-4.23.09-8.54.09-12.7.09-1.83,0-3.66,0-5.49,0h-.82c.02.06.04.12.06.17l1,2.33c4.25,9.9,8.63,20.13,13,30.18.08.19.57.5.86.51,1.96.05,3.95.04,5.88.04.56,0,1.11,0,1.67,0Z"/>
    </g>
    <g>
      <path class="st1" d="M134,190.3h59.27c-9.88-24.59-19.7-49.02-29.63-73.76-9.95,24.76-19.78,49.23-29.63,73.76ZM187.62,186.47h-47.96c7.96-19.82,15.91-39.59,23.98-59.69,8.07,20.1,16,39.82,23.98,59.69Z"/>
      <path class="st1" d="M194.01,190.8h-60.75l30.37-75.6,30.37,75.6ZM134.74,189.8h57.79l-28.89-71.92-28.89,71.92ZM188.36,186.97h-49.44l24.72-61.53,24.72,61.53ZM140.39,185.97h46.48l-23.24-57.85-23.24,57.85Z"/>
    </g>
  </g>
</svg>